<?xml version="1.0" encoding="utf-8"?>
<!-- Generator: Adobe Illustrator 26.0.3, SVG Export Plug-In . SVG Version: 6.00 Build 0)  -->
<svg version="1.1" id="Ebene_2_00000168106569845027789390000006553621859350538675_"
	 xmlns="http://www.w3.org/2000/svg" xmlns:xlink="http://www.w3.org/1999/xlink" x="0px" y="0px" viewBox="0 0 1000 1000"
	 style="enable-background:new 0 0 1000 1000;" xml:space="preserve">
<style type="text/css">
	.st0{fill:#FFFFFF;stroke:#000000;stroke-miterlimit:10;}
</style>
<circle class="st0" cx="500" cy="500" r="500"/>
<g>
	<g>
		<path d="M322.7,275.8c-9.4,22.4-26.5,42.8-47,55.7c-15.9,10-34.2,15.1-52.8,15.8c-18.6,0.8-38.2-2.2-54.6-11.4
			c-19.4-11-30.7-30.7-32.4-52.7c0,0.5,0.1,1,0.1,1.4c-1.8-28.8-2.1,96.2,0.1,65.5c0,0.5-0.1,1-0.1,1.4
			c2.1-24.7,14.2-48.4,32.2-65.4c21.1-19.9,50.2-29.8,78.5-34.1c26.5-4,54.1-4.4,80.7-0.8c35.1,4.7,70,11,105,17
			c16.2,2.8,32.5,5.7,48.8,8.3c11.3,1.8,22.7,3.6,34.2,3.7c21.7,0.2,41.4-9.4,57.5-23.5c9.1-7.9,17.3-17.4,23-28
			c2.3-4.3,4.2-9,5.3-13.8c0.5-2.3,0.7-4.6,0.8-7c1-21.2,0.4-42.6,0.2-63.8c-0.1-7.2,1.4-17.4-2.3-24.4c-2.2-4-5.9-6.9-10-8.8
			c-10.2-4.8-22.6-5.2-33.7-4.4c-24.7,1.8-47,12.8-63.1,31.7c-17.4,20.3-24.2,47.4-30,73c-15.8,70.2-31,140.4-46.4,210.6
			c-7.8,35.3-15.5,70.6-23.3,105.8c-6.8,31-13.2,62.3-23.2,92.6c-9.5,28.6-22.6,57-42.6,79.8c-18,20.6-41.7,36.9-68,44.6
			c-25.4,7.4-53.2,5.6-76.4-7.8c-21.5-12.5-37.4-33.2-46.2-56.2c-4.4-11.4-7.1-23.4-8.1-35.6c0,0.5,0.1,1,0.1,1.4
			c-0.1-1.1-0.2-2.2-0.2-3.3c0-0.4,0-0.7-0.1-1.1c0.2,11.8,0.2,23.8,0,35.6c-0.4,34-0.4,45,0,33.2c0-0.6,0-1.1,0.1-1.7
			c0.1-1.1,0.2-2.2,0.2-3.3c0,0.5-0.1,1-0.1,1.4c4.3-53,40.7-98.6,84.6-126.1c43.1-27,84.1-39.8,176.8-51l0,0
			c52.4-13.4,94.9-13.8,124.8-11.4c78.8,6.3,140.8,37.6,212.4,12.4c12.6-4.4,19.9-8.6,20.4-14.2c2.3-23.5-116.4-53.1-164.4-63.1
			c-21.1-4.4-40.9-7.6-63.5-9.2c-25.6-1.9-47.9-0.7-77,0.8c-46.5,2.5-93.5,7.9-138.7,19c-41.8,10.2-83.1,26.8-116.1,55.2
			c-29.2,25.2-52.1,59.4-58,98.1c-0.7,4.6-1.2,9.3-1.4,13.9c-1,21.4-0.5,42.9-0.4,64.3c0.1,14-0.2,28.1,2.4,41.8
			c3.2,17.4,10.1,34.2,20.3,48.6c10,14.2,23.3,26.1,39,33.5c16.8,7.9,35.8,10.2,54.2,7.6c38.2-5.5,72.4-30.4,94.2-61.5
			c25-35.7,37-78.3,46.6-120.2c22.6-98.2,43.4-196.8,65.1-295.2c5.3-24.1,10.2-48.3,16.2-72.2c4.6-18.4,10.4-37.5,21.4-53.3
			c2.2-3.1,8.3-11,18.3-19.4c11.4-9.5,35.8-30,59.2-24.6c19.4,4.5,36.2,26.3,36.8,25.6c0.2-0.2-0.1-1.4-0.1-1.4s-0.5-23.3-0.2-47.8
			c0.2-15.2,0.6-29.5,0.5-29.5s-0.2,1.3-0.2,3.8c0-0.5,0.1-1,0.1-1.4c-1.1,13.8-9.9,26.5-18.8,36.4c-11.5,12.9-23.3,20-40.6,28.7
			c-13.4,6.7-25,12.5-40,14.2c-14.7,1.7-22-1.8-54.1-11.4c-41.8-12.6-70.8-19-89.1-22.6c-13.4-2.6-25-4.2-38.1-5.6
			c-13.8-1.5-27.8-1.5-41.8-1.1c-37.4,1.1-78,8.6-107.3,33.5c-12.5,10.6-22.3,24.3-28.6,39.4c-3.1,7.4-5.4,15-6.6,22.9
			c-0.6,3.6-0.9,7.3-1,11c-1,23.6-0.5,47.4-0.2,71c0.1,10.6,0.2,21.1,3.2,31.4c2.2,7.4,5.8,14.6,10.5,20.8
			c9.4,12.3,23.3,20.1,38,24.2c29,8.1,62.1,4.3,87.8-11.5c19.5-12,35.1-30.2,45.3-50.6c0.9-1.8,1.8-3.7,2.6-5.6
			c1-2.4,0.2-10,0.3-11.7c0.1-1.2,0.4,1.7,0.1-28.3C323.4,305.4,323.1,292,322.7,275.8z"/>
	</g>
</g>
<g>
	<g>
		<path d="M582.8,303.6c-5.5,17-4.3,35.1-4.4,52.8c-0.1,17.7-0.7,35.6,0.5,53.2c0.4,5.7,1.3,11.3,2.7,16.8c5.3,21,17.5,40.3,34,54.3
			c37.4,31.6,92.4,34.1,137.2,19c42.3-14.3,80-45.2,97.8-86.7c4.4-10.4,7.5-21.3,9.1-32.4c0.7-5,1.2-10.1,1.4-15.2
			c0.8-20.5,0.5-41.2,0.3-61.7c-0.1-15.5-0.1-31-3.4-46.2c-2.4-10.9-6.1-21.5-11.3-31.4c-20.4-38.9-62.7-61.4-106.4-57.4
			c-21,2-40.9,10.3-56.3,24.8c-16.4,15.4-26.8,35.8-33.9,56.8c-8,23.5-12.4,48.1-17.3,72.4c-5.9,29.3-11.8,58.6-17.7,87.9
			c-12,59.2-23.9,118.5-35.9,177.7c-6,29.6-12,59.2-17.9,88.8c-3,14.6-5.9,29.3-8.9,43.9c-2.4,12.1-5,24.3-9.7,35.7
			c-8.6,20.6-25.4,35.1-48,37.8c-20.9,2.4-42-6.1-53.5-24.1c-5.3-8.3-8.2-17.8-9.1-27.6c0,0.4,0.1,0.9,0.1,1.3
			c-1.9-28.4-1.7,89.2,0,63c0,0.4-0.1,0.9-0.1,1.3c2.2-25.6,20.6-44.3,44.7-51.5c27.5-8.2,55.8-1.7,81.6,9.1
			c14.7,6.2,28.8,13.6,43.2,20.5c14.9,7.1,30.2,13.5,45.7,19.2c30.6,11,62.5,19.4,94.8,23.7c29.6,4,61.4,3,86.4-15.2
			c21.9-15.9,35.8-41.4,39.5-68.1c1.6-11.3,1.4-22.8,1.4-34.2c0.1-21.9,1-44.3-0.7-66.2c-1.2-15.7-5.1-31.1-11.2-45.5
			c-10.9-25.9-28.7-48.5-49.8-66.9C761,492.4,700.4,474,640.5,463.8c-8.1-1.4-16.2-2.6-24.4-3.8c0.3,0-0.4,34.7-0.4,37.5
			c0,8.8,0,17.7,0.1,26.5c0,1.1-0.2,10.9,0.3,11c85.2,12.1,179.1,38.1,228.3,115.2c13.4,21,22.2,44.8,24.2,69.7
			c0-0.4-0.1-0.9-0.1-1.3c0.1,1.2,0.2,2.3,0.2,3.5c0.5,12.3,0.5,2.3,0.1-30.1c0.4-32.4,0.4-42.4-0.1-30.1c-0.1,1.2-0.1,2.3-0.2,3.5
			c0-0.4,0.1-0.9,0.1-1.3c-2.1,24.1-11.6,47.3-28.6,64.8c-17.8,18.2-41.5,26.6-66.6,27.3c-27.3,0.8-55.1-5.1-81.4-11.8
			c-27.3-7-54.1-16.3-79.8-27.9c-44.4-20-94-53-144.1-31.5c-19.6,8.4-33.9,25.5-36,47.1c-1.7,17.4-0.7,35.3-0.6,52.8
			c0,12.1-0.7,24.8,1,36.9c1.5,10.1,5.4,19.9,11.7,27.9c13.1,16.7,35.4,23.1,55.8,18.9c23.4-4.8,38.1-22.4,45.4-44.4
			c4.2-12.7,6.5-25.9,9.1-39c3.1-15.3,6.2-30.6,9.3-45.9c6-29.9,12.1-59.9,18.1-89.8c12.1-59.9,24.2-119.8,36.3-179.6
			c6-29.9,12.1-59.9,18.1-89.8c4.7-23.4,9.8-46.9,19.2-68.9c8.8-20.6,21.9-40,40.9-52.5c17.8-11.7,39.4-16.5,60.5-15.2
			c21.3,1.3,42.5,8.7,59.6,21.5c17.7,13.4,30.5,32.5,37.6,53.4c3.6,10.6,5.7,21.7,6.6,32.9c0-0.4-0.1-0.9-0.1-1.3
			c0.1,1,0.1,2,0.2,2.9c0,0.5,0,1,0.1,1.5c0.4,12,0.4,2,0-30.3c0-54.5,0.5-40.8-0.1-29.5c-0.1,1.2-0.1,2.4-0.2,3.7
			c0-0.4,0.1-0.9,0.1-1.3c-4.4,52.3-39.7,95.9-85.9,118.8c-47.9,23.8-111.7,26.8-155.8-7.2c-22.5-17.3-37.5-44.1-40-72.5
			c0,0.4,0.1,0.9,0.1,1.3c0-0.5-0.1-0.9-0.1-1.4c-0.6-12.3-0.7-1.9-0.1,31.2c-0.5,32.8-0.5,43.5,0,31.9c0-0.7,0.1-1.4,0.1-2.1
			c0,0.4-0.1,0.9-0.1,1.3c0.5-6.7,1.8-13.2,3.8-19.6c0.9-2.7,0.2-8.7,0.3-11c0.1-8.8,0.1-17.7,0.1-26.5s0-17.7-0.1-26.5
			C583.1,311.5,582,306.3,582.8,303.6L582.8,303.6z"/>
	</g>
</g>
</svg>
