<?xml version="1.0" encoding="utf-8"?>
<!-- Generator: Adobe Illustrator 26.0.3, SVG Export Plug-In . SVG Version: 6.00 Build 0)  -->
<svg version="1.1" id="Ebene_2_00000168106569845027789390000006553621859350538675_"
	 xmlns="http://www.w3.org/2000/svg" xmlns:xlink="http://www.w3.org/1999/xlink" x="0px" y="0px" viewBox="0 0 1000 1000"
	 style="enable-background:new 0 0 1000 1000;" xml:space="preserve">
<style type="text/css">
	.st0{fill:url(#SVGID_1_);}
</style>
<linearGradient id="SVGID_1_" gradientUnits="userSpaceOnUse" x1="1157.3285" y1="-1959.1172" x2="-149.3382" y2="-648.8948" gradientTransform="matrix(1 0 0 1 0 1800)">
	<stop  offset="0" style="stop-color:#6C4675"/>
	<stop  offset="1" style="stop-color:#D47479"/>
</linearGradient>
<rect x="-150" y="-150" class="st0" width="1300" height="1300"/>
<g>
	<g>
		<path d="M323.4,297.6c-5.9,40.8-38.8,74.2-80.2,78.7c-20.6,2.2-41.9-2.5-59.8-13.1c-19-11.4-30.3-27.3-36.5-48.2
			c-3.1-10.7-3.7,30.7,0.3,16.4c0.9-3.2,1.4-6.4,2.5-9.6c1.6-4.9,3.5-9.7,5.8-14.3c4.2-8.6,9.7-16.3,16.5-23.1
			c12-12,27-20.6,42.6-26.9c36-14.2,76.2-17.3,114.6-15.3c43,2.2,83.4,12.8,123.5,28.2c31.8,12.2,64.2,25.3,95.3,3.8
			c13.7-9.5,27-24.2,31.4-40.6c3.8-14.4,3.1-31.1,2.2-45.8c-0.5-7.7-0.2-17.3-7.4-21.9c-12.9-8.2-34.6-2.2-47.5,2.4
			c-19.9,7.2-36.2,20.5-47.3,38.6c-8.3,13.6-13.2,28.8-16.5,44.3c-5.2,24.1-8.9,48.6-12.5,72.9c-7.5,51.1-13,102.6-20.6,153.7
			c-7.3,49.2-16.4,98.4-32.1,145.7c-7.4,22.4-16.3,44.3-26.9,65.4c-9.8,19.4-19.7,39.2-33.3,56.2c-11.5,14.5-26.2,27.2-44.5,31.7
			c-16.5,4-33.8,0.7-49.2-5.8c-34.8-14.6-63.9-44.8-80.1-78.6c-3.7-7.8-6.9-15.9-9-24.2c-1.4-5.9-1.8-20.8-1.8,0.6
			c0,21,0.2,8,1.8,2.1c4.3-15.2,13-28.9,23.7-40.6c23.3-25.5,54.5-43.1,85.5-57.5c53.1-24.7,110.7-44.2,168.6-54
			c93.4-15.8,187.4-5.2,274.6,32.4c33.8,14.6,67.8,30.1,97.4,52.4c14.7,11.1,28.5,24.2,38.2,40c4.2,6.7,7.6,13.9,10.2,21.4
			c1.3,3.8,2,7.4,2.9,11.3c0.2,0.8,0.2,1.6,0.4,2.4c-0.6-6.5-0.7-13-0.1-19.5c-0.5,2-0.6,4.2-1,6.2c-8.3,39.6-38.6,73.8-71.7,95.4
			c-16.6,10.8-35.1,19.1-54.6,22.7c-23,4.2-46.2,0.2-68.2-7c-24.6-7.9-48.6-19-71.7-30.8c-17-8.7-33-19.7-50.4-27.4
			c-31.6-14.1-67.5,3.6-84.7,32.2c-4.1,6.8-5.8,13.8-6.5,21.6c-0.9,9.3-1,18.6-0.7,27.9c0.2,6.6-0.1,15.2,2.3,21.8
			c5.9,16.1,32.1,15.8,45.6,13.4c26.3-4.7,42.7-25.3,53.5-48.3c16-34.2,23.7-72.2,31.9-108.8c7.8-34.6,15.1-69.3,22.8-103.9
			c7.7-34.6,16-68.8,20.8-103.9c6.2-45.7,12.7-90.7,25.5-135.2c6.2-21.4,12.2-43,19.7-63.9c5.4-15,11.4-31,21.6-43.6
			c17.4-21.6,44.7-22.9,69.8-15.4c32.3,9.6,62.2,31.5,81.8,58.8c10,13.9,18.2,30.2,21.2,47.2c0.2,1.4,0.2,3,0.6,4.3
			c-0.1-3.1-0.2-6.2-0.3-9.3c0.6-9,0.6-11.4,0.1-7.3c-1.4,4.2-1.8,8.9-3.2,13.2c-3.1,9.4-7.5,18.4-13,26.6
			c-34.5,52.7-105,77.4-165.7,64.2c-17.1-3.7-33.7-11-46.8-22.8c-3.6-3.3-11.6-11.3-18.1-23.7c-16.5-31.5-8.7-63.5-9.9-63.6
			c-1.5-0.1-11.6,42.1-0.1,92.3c4.9,21.4,16.2,41,33.8,54.2c25.5,19.2,59.7,23.4,90.6,20.6c31.8-2.9,62.6-15.7,87.4-35.8
			c15.7-12.7,29.3-28.7,37.9-47c10.4-22.2,12.2-46.7,12.2-70.9c0.1-23.4-1.8-47.4-11-69.2c-6.9-16.1-17.2-30.8-29.3-43.4
			c-23.2-24.2-56-44.6-90.2-47c-29.7-2.1-48.6,15-61,40.5c-8.6,17.6-14.3,36.6-20,55.3c-7.9,26.2-15.6,52.4-21.4,79.1
			c-9.3,42.4-12.3,85.8-20.5,128.4c-6.8,35.4-15.5,70.5-23.3,105.7c-8.6,39.7-16.6,79.5-27.2,118.7c-7.8,28.6-16.7,62.6-38.9,83.7
			c-11,10.5-25.2,16.1-40.4,16.9c-9.2,0.5-19.6-0.4-27.8-4.9c-3.4-1.8-4.4-3.8-7-6.3c0,14.1,0,28.2,0,42.2c0.3-1.2,0.7-2.3,1.2-3.4
			c1.3-2.5,2.3-5,3.8-7.3c10.3-16.3,28.8-29.3,47.6-33.4c15.8-3.5,29.8,1.1,43.7,8.5c43.5,23.1,87,50.2,136,59.9
			C727,846,768.6,830,802,801.9c32.4-27.2,54.7-64,58.5-106.6c2.4-26.8,2.9-56.6-5.8-82.5c-5.4-16.3-15.4-30.9-27.2-43.3
			c-26.7-28.1-62.5-46.5-97.4-62.4c-46.7-21.3-94.4-38.2-145.5-45.4c-76.6-10.6-156-2.1-229.4,22.2c-29.9,9.8-59.8,20.6-88.5,33.8
			c-32.4,14.9-65.4,33.2-89.2,60.2c-29.4,33.3-32,76-27.8,118.8c3.8,40,24.4,75.9,54.1,102.6c26.5,23.8,66.6,44.5,101.9,27.8
			c17.7-8.3,30.7-23.9,41.4-39.8c12.8-19,23.4-40,32.9-60.9c43.5-95.3,53.4-201.9,66.6-304.6c3.6-27.8,7.4-55.4,12-83.1
			c3.1-18.9,5.6-38.3,11.9-56.5c13.3-38,51.4-70.6,94-64.8c3.4,0.5,7,1.2,9.9,3c0.8,0.6,1.4,1.1,2.2,1.7c0.3,0.3,0.6,0.7,0.9,1
			c6.2,13.7,6.3,0.3,0.2-40.2c-4.1,9.8-9,17.9-16.4,25.6c-12.6,13-29.3,22.8-47.8,23.4c-17.5,0.6-34.5-5.9-50.6-12.1
			c-22.2-8.5-44.3-17.1-67.5-22.7c-39.9-9.7-82.2-12.6-123.1-7.8c-36.2,4.2-75.8,14.9-101.8,42.2c-13.8,14.6-22.2,33.1-25.9,52.7
			c-3,16.3-3.2,33.4-2.7,49.9c0.4,15,1.5,30.6,7.3,44.6c16,38.9,63,58.7,102.8,50.4c41.1-8.6,68.4-44.5,74.2-84.8
			c1.8-12.2,1.8-24.9,1-37.2C327,304.7,324.9,287.4,323.4,297.6z"/>
	</g>
</g>
</svg>
